<svg xmlns="http://www.w3.org/2000/svg" viewBox="100 100 800 800" fill="currentColor"><path d="M504.636 847.335C456.022 847.335 409.982 837.603 367.946 820.143C305.034 793.81 251.274 749.732 213.241 694.204C175.208 638.676 153.189 571.986 153.189 499.857C153.189 451.771 162.912 406.261 180.927 364.472C207.522 302.075 252.132 249.123 308.18 211.628C364.228 174.132 431.715 152.379 504.636 152.379V100C448.873 100 395.684 111.163 347.071 131.485C274.437 161.825 212.669 212.487 169.203 276.315C125.451 340.143 100 417.138 100 499.857C100 555.098 111.438 607.764 131.742 655.564C162.34 727.406 213.813 788.372 278.154 831.592C342.781 874.812 420.563 900 504.35 900V847.335H504.636Z" fill-rule="evenodd"/><path d="M324.48 713.095C291.594 685.617 267.002 652.415 250.416 616.064C233.83 579.714 225.251 540.501 225.251 501.002C225.251 469.517 230.684 438.032 241.265 407.979C252.132 377.925 268.145 349.302 290.164 323.256C317.617 290.626 351.074 266.011 387.391 249.41C423.708 232.809 463.457 224.508 502.92 224.508C534.376 224.508 566.117 229.946 596.143 240.537C626.455 251.413 655.051 267.442 681.074 289.195L715.103 248.837C684.219 223.077 649.904 203.614 613.873 191.02C577.842 178.14 540.381 171.843 502.92 171.843C455.736 171.843 408.838 181.86 365.372 201.61C321.906 221.36 282.157 250.841 249.558 289.481C223.535 320.394 204.376 354.454 191.508 390.233C178.639 426.011 172.348 463.506 172.348 501.002C172.348 547.943 182.357 594.884 202.088 638.104C221.82 681.324 251.56 721.109 290.45 753.453L324.48 713.095Z" fill-rule="evenodd"/><path d="M405.979 679.034C371.377 660.716 344.211 634.097 325.624 602.898C307.036 571.7 297.313 535.635 297.313 499.284C297.313 467.227 304.748 434.884 321.048 404.83C339.35 370.197 366.23 343.292 397.686 324.973C429.142 306.369 465.173 296.637 501.776 296.637C533.804 296.637 566.403 304.079 596.715 320.107L621.308 273.453C583.275 253.417 542.096 243.685 501.49 243.971C455.45 243.971 409.982 256.279 370.52 279.463C331.057 302.648 297.027 336.995 274.151 380.215C254.133 418.283 244.411 459.213 244.411 499.284C244.411 545.081 256.707 590.304 280.156 629.517C303.605 669.016 337.92 702.504 381.386 725.402L405.979 679.034Z" fill-rule="evenodd"/><path d="M504.922 628.658C486.906 628.658 469.748 624.937 454.306 618.354C430.857 608.623 411.126 592.021 397.114 571.127C383.102 550.233 374.809 525.331 374.809 498.426C374.809 480.394 378.527 463.22 385.104 447.764C394.826 424.58 411.412 404.544 432.287 390.519C453.163 376.494 478.041 368.193 504.922 368.193V315.528C479.757 315.528 455.736 320.68 433.717 329.839C400.832 343.864 373.093 366.762 353.362 395.957C333.345 425.438 321.906 460.93 321.906 498.712C321.906 523.9 327.053 547.943 336.204 569.982C350.216 602.898 373.379 630.662 402.547 650.411C431.715 669.875 466.889 681.324 504.922 681.324V628.658Z" fill-rule="evenodd"/><path d="M547.816 456.923C541.811 450.626 535.233 445.474 528.656 441.753C522.079 438.032 515.216 436.029 508.067 436.029C498.344 436.029 490.052 437.746 482.331 441.181C474.896 444.615 468.318 449.195 462.885 455.206C457.452 460.93 453.448 467.8 450.589 475.242C447.729 482.683 446.585 490.698 446.585 498.712C446.585 506.726 448.015 514.741 450.589 522.182C453.448 529.624 457.452 536.494 462.885 542.218C468.318 547.943 474.61 552.809 482.331 556.243C489.766 559.678 498.344 561.395 508.067 561.395C516.074 561.395 523.795 559.678 530.658 556.53C537.521 553.095 543.526 548.229 548.388 541.932L583.275 579.428C578.128 584.58 572.122 589.159 565.259 592.88C558.396 596.601 551.533 599.75 544.67 602.039C537.807 604.329 530.944 606.047 524.653 606.905C518.362 608.05 512.643 608.336 508.067 608.336C492.339 608.336 477.469 605.76 463.743 600.608C449.731 595.456 437.721 588.014 427.712 578.283C417.417 568.837 409.41 557.102 403.405 543.649C397.4 530.197 394.54 515.027 394.54 498.712C394.54 482.111 397.4 467.227 403.405 453.775C409.41 440.322 417.417 428.873 427.712 419.141C438.007 409.696 450.017 402.254 463.743 396.816C477.755 391.664 492.625 389.088 508.067 389.088C521.507 389.088 534.947 391.664 548.388 396.816C561.828 401.968 573.838 409.982 583.847 420.859L547.816 456.923Z" fill-rule="evenodd"/></svg>
