<svg xmlns="http://www.w3.org/2000/svg" viewBox="0 0 50 50" fill="currentColor"><path d="M48.835 10.048c-.512-.256-.732.232-1.032.48a3.4 3.4 0 0 1-.276.28c-.748.816-1.622 1.352-2.765 1.288-1.67-.096-3.096.44-4.356 1.744-.268-1.608-1.158-2.568-2.513-3.184-.71-.32-1.426-.64-1.923-1.336-.346-.496-.441-1.048-.614-1.592-.11-.328-.221-.664-.591-.72-.402-.064-.559.28-.717.568-.63 1.176-.875 2.472-.851 3.784.055 2.952 1.276 5.304 3.703 6.976.275.192.346.384.259.664-.165.576-.362 1.136-.536 1.712-.11.368-.275.448-.661.288a8.82 8.82 0 0 1-3.498-2.424c-1.725-1.704-3.285-3.584-5.231-5.056-.457-.344-.914-.664-1.387-.968-1.985-1.968.26-3.584.78-3.776.544-.2.189-.888-1.568-.88-1.757.008-3.364.608-5.412 1.408-.3.12-.615.208-.938.28-1.859-.36-3.79-.44-5.806-.208-3.797.432-6.831 2.264-9.06 5.392C1.164 18.528.534 22.8 1.307 27.256c.81 4.696 3.16 8.584 6.767 11.624 3.742 3.152 8.052 4.696 12.967 4.4 2.986-.176 6.31-.584 10.061-3.824.945.48 1.939.672 3.585.816 1.269.12 2.49-.064 3.435-.264 1.481-.32 1.379-1.72.843-1.976-4.34-2.064-3.388-1.224-4.254-1.904 2.206-2.664 5.53-5.432 6.83-14.4.103-.712.016-1.16 0-1.736-.007-.352.071-.488.466-.528 1.087-.128 2.143-.432 3.111-.976 2.813-1.568 3.948-4.144 4.215-7.232.04-.472-.007-.96-.497-1.208zM24.326 37.84c-4.206-3.376-6.247-4.488-7.09-4.44-.788.048-.647.968-.474 1.568.181.592.418 1 .749 1.52.228.344.386.856-.229 1.24-1.355.856-3.71-.28-3.821-.336-2.741-1.648-5.034-3.824-6.649-6.8-1.56-2.864-2.466-5.936-2.616-9.216-.04-.792.189-1.072.96-1.216a8.82 8.82 0 0 1 3.081-.08c4.294.64 7.95 2.6 11.014 5.704 1.75 1.768 3.073 3.88 4.436 5.944 1.45 2.192 3.01 4.28 4.995 5.992.701.6 1.26 1.056 1.796 1.392-1.615.184-4.31.224-6.153-1.272zm2.017-13.24c0-.352.276-.632.622-.632a.56.56 0 0 1 .213.04.55.55 0 0 1 .228.152.64.64 0 0 1 .174.44c0 .352-.276.632-.623.632a.626.626 0 0 1-.614-.632zm6.263 3.28c-.402.168-.804.312-1.19.328-.598.032-1.252-.216-1.607-.52-.551-.472-.945-.736-1.11-1.56-.071-.352-.032-.896.031-1.208.142-.672-.016-1.104-.48-1.496-.379-.32-.858-.408-1.386-.408-.197 0-.378-.088-.512-.16-.22-.112-.401-.392-.228-.736.055-.112.323-.384.386-.432.717-.416 1.544-.28 2.308.032.71.296 1.245.84 2.018 1.608.787.928.928 1.184 1.378 1.88.355.544.678 1.104.899 1.744.134.4-.04.728-.507.928z"/></svg>
