<svg xmlns="http://www.w3.org/2000/svg" viewBox="0 0 32 32" fill="currentColor"><path d="M15.985 19.127c-.888 0-1.685-.527-2.025-1.344L9.863 8h2.398l3.738 8.95L19.734 8h2.398l-4.122 9.787c-.342.813-1.137 1.34-2.025 1.34z"/><path d="M21.332 23.803c-.885 0-1.679-.524-2.022-1.333-.345-.816-.166-1.748.457-2.381l7.463-7.559.932 2.199-6.832 6.907 9.738-.054.932 2.199-10.667.026h-.003z"/><path d="M0 23.777l.932-2.199 9.738.054-6.83-6.855.932-2.198 7.462 7.559c.624.63.804 1.566.458 2.38-.344.811-1.137 1.333-2.022 1.333L.004 23.773 0 23.777z"/></svg>
