<svg width="120" height="120" viewBox="30 31 100 100" fill="none" xmlns="http://www.w3.org/2000/svg">
  <line x1="44" y1="88" x2="32" y2="98" stroke="#ea580c" stroke-width="4" stroke-linecap="round" opacity="0.7" />
  <line x1="42" y1="95" x2="28" y2="110" stroke="#ea580c" stroke-width="3.5" stroke-linecap="round" opacity="0.6" />
  <line x1="44" y1="101" x2="34" y2="122" stroke="#ea580c" stroke-width="3" stroke-linecap="round" opacity="0.5" />
  <line x1="116" y1="88" x2="128" y2="98" stroke="#ea580c" stroke-width="4" stroke-linecap="round" opacity="0.7" />
  <line x1="118" y1="95" x2="132" y2="110" stroke="#ea580c" stroke-width="3.5" stroke-linecap="round" opacity="0.6" />
  <line x1="116" y1="101" x2="126" y2="122" stroke="#ea580c" stroke-width="3" stroke-linecap="round" opacity="0.5" />
  <path d="M42 64 Q34 58 30 54 Q28 52 30 50 Q32 49 34 51 Q36 54 38 56" fill="#f97316" stroke="#f97316" stroke-width="2" stroke-linecap="round" />
  <path d="M118 64 Q126 58 130 54 Q132 52 130 50 Q128 49 126 51 Q124 54 122 56" fill="#f97316" stroke="#f97316" stroke-width="2" stroke-linecap="round" />
  <ellipse cx="80" cy="76" rx="40" ry="32" fill="#f97316" />
  <ellipse cx="80" cy="82" rx="24" ry="18" fill="white" opacity="0.14" />
  <path d="M80 44 L80 108" stroke="black" stroke-width="0.8" opacity="0.16" />
  <path d="M52 52 Q80 68 108 52" stroke="black" stroke-width="0.8" opacity="0.14" fill="none" />
  <path d="M44 70 Q80 88 116 70" stroke="black" stroke-width="0.8" opacity="0.14" fill="none" />
  <ellipse cx="64" cy="48" rx="5" ry="10" fill="#f97316" />
  <ellipse cx="96" cy="48" rx="5" ry="10" fill="#f97316" />
  <ellipse cx="64" cy="54" rx="9" ry="10" fill="white" />
  <ellipse cx="96" cy="54" rx="9" ry="10" fill="white" />
  <ellipse cx="65" cy="54" rx="5" ry="6" fill="#111214" />
  <ellipse cx="97" cy="54" rx="5" ry="6" fill="#111214" />
  <ellipse cx="67" cy="51" rx="2" ry="2.5" fill="white" opacity="0.9" />
  <ellipse cx="99" cy="51" rx="2" ry="2.5" fill="white" opacity="0.9" />
  <path d="M68 80 Q80 90 92 80" stroke="black" stroke-width="2.5" stroke-linecap="round" opacity="0.32" fill="none" />
</svg>
